<svg width="566" height="566" viewBox="0 0 566 566" fill="none" xmlns="http://www.w3.org/2000/svg">
<circle cx="283" cy="283" r="247.5" stroke="url(#paint0_linear_85_496)" stroke-width="3"/>
<circle cx="283" cy="283" r="281.5" stroke="url(#paint1_linear_85_496)" stroke-width="3"/>
<mask id="mask0_85_496" style="mask-type:alpha" maskUnits="userSpaceOnUse" x="168" y="133" width="229" height="275">
<path d="M197.952 359.088C195.004 347.333 191.697 335.65 190.077 323.615C190.154 324.187 190.231 324.759 190.307 325.332C188.934 314.937 188.62 304.401 190.003 293.989C189.926 294.562 189.849 295.134 189.772 295.707C191.146 285.661 194.129 275.77 198.055 266.433C197.838 266.948 197.621 267.462 197.404 267.976C200.884 259.756 205.29 251.942 210.737 244.86C210.4 245.296 210.063 245.732 209.726 246.168C214.472 240.032 219.96 234.511 226.09 229.757C225.654 230.094 225.219 230.431 224.783 230.767C231.365 225.692 238.61 221.551 246.261 218.311C245.746 218.528 245.232 218.745 244.717 218.962C253.854 215.119 263.548 212.434 273.371 211.1C272.799 211.177 272.227 211.253 271.654 211.33C280.109 210.206 288.679 210.152 297.137 211.27C296.565 211.193 295.993 211.116 295.42 211.04C303.538 212.138 311.476 214.307 319.026 217.486C318.512 217.269 317.997 217.052 317.483 216.835C325.104 220.07 332.26 224.302 338.82 229.351C338.385 229.014 337.949 228.677 337.513 228.341C344.828 234.003 351.339 240.631 357.009 247.934C356.673 247.498 356.336 247.062 355.999 246.626C361.926 254.3 367.067 262.674 370.848 271.614C370.63 271.1 370.413 270.586 370.196 270.071C373.38 277.678 375.557 285.661 376.672 293.832C376.595 293.259 376.518 292.687 376.441 292.114C377.447 299.692 377.737 307.591 376.733 315.188C376.81 314.615 376.887 314.043 376.964 313.47C376.511 316.726 375.654 319.9 374.384 322.931C374.601 322.417 374.818 321.902 375.035 321.388C373.805 324.272 372.221 326.98 370.314 329.468C370.651 329.033 370.987 328.597 371.324 328.161C369.35 330.704 367.067 332.979 364.526 334.954C364.961 334.618 365.397 334.281 365.833 333.944C363.183 335.979 360.292 337.664 357.216 338.97C357.731 338.753 358.245 338.536 358.76 338.319C355.615 339.632 352.323 340.533 348.945 340.987C349.518 340.91 350.09 340.833 350.663 340.757C347.491 341.164 344.29 341.171 341.118 340.758C341.69 340.835 342.263 340.912 342.835 340.989C339.747 340.567 336.738 339.751 333.861 338.552C334.375 338.769 334.889 338.986 335.404 339.203C332.535 337.985 329.85 336.404 327.376 334.51C327.811 334.847 328.247 335.184 328.683 335.52C325.939 333.39 323.457 330.958 321.321 328.217C321.657 328.653 321.994 329.089 322.331 329.524C320.329 326.915 318.68 324.074 317.401 321.045C317.618 321.559 317.835 322.073 318.052 322.588C316.635 319.16 315.717 315.569 315.213 311.897C315.29 312.469 315.367 313.042 315.443 313.614C314.923 309.637 314.947 305.637 314.131 301.689C313.413 298.214 312.102 294.78 310.354 291.694C306.737 285.307 301.057 280.682 294.269 278.034C291.007 276.762 287.426 276.192 283.94 276.069C280.333 275.942 276.575 276.415 273.168 277.634C265.891 280.24 259.804 285.332 255.922 292.029C251.958 298.868 250.84 306.497 251.24 314.288C251.611 321.532 252.765 328.799 254.771 335.772C258.699 349.421 265.754 362.041 275.223 372.615C284.795 383.305 296.852 391.414 310.133 396.743C311.726 397.382 313.337 397.97 314.964 398.516C318.17 399.592 322.165 397.277 322.91 394.004C323.723 390.433 321.831 387.21 318.398 386.058C316.322 385.362 314.273 384.591 312.253 383.745C312.767 383.962 313.282 384.179 313.796 384.396C306.917 381.49 300.44 377.711 294.526 373.151C294.962 373.488 295.398 373.825 295.834 374.161C290.03 369.656 284.819 364.433 280.32 358.625C280.657 359.061 280.994 359.497 281.33 359.933C276.736 353.962 272.927 347.424 269.996 340.484C270.213 340.999 270.43 341.513 270.647 342.027C267.653 334.877 265.617 327.361 264.582 319.679C264.659 320.251 264.736 320.824 264.812 321.396C264.147 316.331 263.65 311.008 264.327 305.921C264.25 306.493 264.173 307.066 264.096 307.638C264.465 305.058 265.151 302.55 266.16 300.146C265.943 300.661 265.726 301.175 265.509 301.689C266.466 299.468 267.679 297.384 269.152 295.465C268.816 295.901 268.479 296.337 268.142 296.773C269.54 294.988 271.137 293.387 272.931 291.999C272.495 292.336 272.059 292.673 271.623 293.01C273.271 291.763 275.046 290.722 276.946 289.909C276.432 290.126 275.917 290.343 275.403 290.56C277.328 289.761 279.33 289.217 281.397 288.936C280.824 289.013 280.252 289.09 279.679 289.167C282.04 288.874 284.432 288.919 286.788 289.235C286.216 289.158 285.644 289.081 285.071 289.004C287.286 289.322 289.441 289.901 291.506 290.767C290.991 290.55 290.477 290.333 289.963 290.116C291.796 290.906 293.515 291.905 295.106 293.111C294.67 292.775 294.235 292.438 293.799 292.101C295.44 293.372 296.902 294.837 298.181 296.472C297.844 296.036 297.508 295.601 297.171 295.164C298.582 297.005 299.728 299.013 300.631 301.147C300.414 300.633 300.197 300.119 299.98 299.604C301.033 302.16 301.715 304.832 302.082 307.569C302.006 306.997 301.929 306.424 301.852 305.852C302.126 308.027 302.139 310.222 302.375 312.401C302.653 314.958 303.022 317.518 303.631 320.02C304.697 324.399 306.449 328.718 308.788 332.574C313.245 339.919 320.05 346.34 327.898 349.928C334.827 353.095 342.484 354.63 350.098 353.746C357.558 352.881 364.796 350.465 370.977 346.115C377.197 341.738 382.499 335.946 385.708 328.998C387.385 325.368 388.694 321.617 389.311 317.659C390.109 312.541 390.319 307.334 390.172 302.16C389.881 291.848 388.074 281.487 384.633 271.755C381.328 262.404 376.69 253.609 371.064 245.454C361.208 231.17 348.532 218.756 333.328 210.246C318.755 202.09 302.239 197.676 285.535 197.532C268.809 197.388 252.087 201.457 236.921 208.394C223.486 214.539 211.321 223.754 202.006 235.242C191.508 248.187 184.345 263.348 179.973 279.394C177.019 290.236 175.821 301.498 176.272 312.721C176.735 324.229 178.763 335.594 181.491 346.762C182.776 352.028 184.175 357.265 185.493 362.522C186.315 365.801 190.172 368.091 193.439 367.034C196.834 365.936 198.833 362.601 197.952 359.088Z" fill="white"/>
<path d="M256.202 396.993C252.741 393.284 249.441 389.428 246.334 385.417C246.671 385.852 247.008 386.289 247.344 386.724C241.789 379.526 236.869 371.836 232.828 363.686C231.694 361.398 230.631 359.075 229.637 356.723C229.854 357.237 230.071 357.752 230.288 358.266C227.054 350.573 224.599 342.565 223.002 334.373C222.54 331.999 222.15 329.612 221.826 327.217C221.903 327.789 221.98 328.362 222.057 328.934C221.36 323.705 220.987 318.437 220.93 313.163C220.873 307.828 221.045 302.441 221.742 297.148C221.665 297.72 221.589 298.293 221.512 298.865C222.342 292.717 223.971 286.704 226.374 280.984C226.157 281.498 225.94 282.012 225.723 282.527C228.054 277.031 231.078 271.856 234.715 267.122C234.379 267.558 234.042 267.994 233.705 268.43C237.375 263.687 241.631 259.427 246.37 255.753C245.934 256.09 245.498 256.427 245.062 256.763C249.758 253.147 254.89 250.131 260.344 247.81C259.829 248.027 259.315 248.244 258.801 248.461C264.229 246.173 269.904 244.618 275.742 243.829C275.17 243.906 274.598 243.983 274.025 244.06C275.717 243.837 277.412 243.655 279.109 243.477C280.722 243.307 282.388 242.979 284.007 242.946C286.666 242.891 289.404 243.241 292.035 243.593C291.462 243.516 290.89 243.439 290.317 243.362C296.266 244.178 302.087 245.732 307.624 248.061C307.11 247.844 306.596 247.626 306.081 247.409C311.459 249.695 316.5 252.683 321.128 256.247C320.692 255.91 320.257 255.573 319.821 255.237C324.966 259.228 329.636 263.88 333.628 269.026C333.291 268.59 332.954 268.155 332.618 267.719C336.102 272.247 338.999 277.189 341.238 282.446C341.021 281.931 340.804 281.417 340.587 280.903C343.077 286.811 344.708 293.033 345.568 299.383C345.491 298.811 345.415 298.238 345.338 297.666C345.709 300.478 345.933 303.304 346.023 306.14C346.077 307.829 346.706 309.499 347.915 310.707C349.035 311.828 350.873 312.671 352.482 312.599C355.89 312.447 359.058 309.758 358.942 306.14C358.551 293.875 355.746 281.801 350.017 270.91C344.432 260.291 336.048 251.287 326.447 244.182C317.732 237.734 307.395 233.276 296.722 231.37C293.587 230.81 290.41 230.405 287.232 230.184C285.793 230.084 284.358 229.97 282.925 230.14C281.23 230.342 279.532 230.511 277.835 230.693C271.766 231.343 265.808 232.273 260.015 234.234C250.113 237.588 241.066 242.928 233.286 249.906C225.786 256.632 219.543 265.03 215.36 274.198C213.086 279.184 211.232 284.339 210.06 289.697C208.791 295.499 208.258 301.437 208.07 307.364C207.708 318.844 208.791 330.428 211.351 341.628C213.805 352.359 217.763 362.768 222.849 372.524C228.014 382.43 234.491 391.613 241.712 400.123C243.448 402.169 245.236 404.169 247.065 406.13C249.376 408.607 253.896 408.64 256.201 406.13C258.637 403.477 258.667 399.635 256.202 396.993Z" fill="white"/>
<path d="M181.051 234.093C182.506 231.923 184.011 229.785 185.572 227.689C185.974 227.15 186.381 226.615 186.788 226.08C187.404 225.269 186.42 226.553 186.391 226.593C186.588 226.324 186.802 226.066 187.008 225.804C187.829 224.763 188.664 223.733 189.514 222.714C192.664 218.94 196.011 215.329 199.555 211.922C201.269 210.273 203.028 208.672 204.832 207.123C205.707 206.371 206.592 205.632 207.487 204.906C207.974 204.511 208.463 204.12 208.956 203.732C209.12 203.603 209.285 203.476 209.449 203.346C207.735 204.704 208.996 203.696 209.381 203.404C213.135 200.558 217.055 197.93 221.117 195.542C225.712 192.839 230.486 190.452 235.393 188.37C234.878 188.587 234.364 188.804 233.85 189.021C244.499 184.532 255.711 181.512 267.161 179.966C266.588 180.042 266.016 180.119 265.443 180.196C268.626 179.774 271.818 179.435 275.011 179.102C276.353 178.962 277.694 178.823 279.033 178.665C280.334 178.511 281.571 178.53 282.881 178.586C288.408 178.819 293.923 179.289 299.406 180.026C298.833 179.949 298.261 179.872 297.688 179.795C309.937 181.463 321.989 184.517 333.393 189.322C332.879 189.105 332.364 188.888 331.85 188.671C340.085 192.164 347.927 196.54 355.193 201.759C356.07 202.388 356.937 203.029 357.797 203.682C357.875 203.741 357.953 203.801 358.031 203.86C358.547 204.255 358.345 204.098 357.426 203.39C357.581 203.512 357.737 203.632 357.893 203.754C358.437 204.18 358.978 204.61 359.515 205.046C361.295 206.488 363.035 207.979 364.734 209.517C368.141 212.6 371.38 215.866 374.452 219.282C376.285 221.32 378.059 223.412 379.774 225.55C380.176 226.051 380.576 226.556 380.972 227.062C381.248 227.415 381.98 228.418 380.754 226.777C381.013 227.124 381.281 227.465 381.542 227.81C382.398 228.944 383.238 230.09 384.066 231.245C385.069 232.646 386.211 233.741 387.927 234.214C389.473 234.64 391.532 234.447 392.904 233.563C395.622 231.811 397.326 227.662 395.222 224.725C385.222 210.766 373.314 198.422 359.071 188.757C345.893 179.815 330.875 173.551 315.385 169.941C306.911 167.966 298.244 166.738 289.572 166.065C287.399 165.897 285.223 165.767 283.046 165.673C282.085 165.632 281.089 165.522 280.132 165.611C279.172 165.699 278.215 165.841 277.257 165.945C271.94 166.522 266.624 167.056 261.334 167.846C244.003 170.433 226.963 176.657 212.077 185.909C196.956 195.308 184.21 207.799 173.714 222.12C172.402 223.91 171.131 225.73 169.895 227.574C168.008 230.387 169.258 234.851 172.212 236.412C175.468 238.131 179.037 237.096 181.051 234.093Z" fill="white"/>
<path d="M214.164 165.043C219.688 161.818 225.407 158.937 231.3 156.446C230.785 156.663 230.271 156.88 229.757 157.097C238.616 153.371 247.841 150.541 257.278 148.712C259.961 148.192 262.658 147.754 265.367 147.39C264.794 147.467 264.222 147.544 263.649 147.621C268.76 146.943 273.9 146.597 279.041 146.248C281.566 146.076 284.056 145.878 286.588 145.938C288.94 145.995 291.29 146.112 293.636 146.289C296.258 146.486 298.873 146.762 301.48 147.107C300.907 147.03 300.335 146.954 299.762 146.877C309.874 148.236 319.813 150.711 329.413 154.16C332.133 155.137 334.824 156.192 337.488 157.314C336.974 157.097 336.459 156.88 335.945 156.663C341.512 159.018 346.946 161.674 352.246 164.582C353.74 165.402 355.562 165.691 357.223 165.233C358.722 164.821 360.346 163.662 361.084 162.265C362.683 159.238 361.93 155.163 358.766 153.427C349.713 148.458 340.231 144.195 330.453 140.863C320.784 137.569 310.851 135.383 300.725 134.089C295.865 133.468 290.971 133.107 286.072 133.007C283.435 132.954 280.817 133.207 278.187 133.386C275.438 133.572 272.688 133.758 269.943 134.005C259.549 134.938 249.244 136.822 239.27 139.912C229.462 142.951 219.933 147.049 210.944 152.01C209.836 152.621 208.736 153.248 207.642 153.886C206.24 154.705 205.105 156.182 204.674 157.747C204.248 159.293 204.44 161.352 205.325 162.724C207.222 165.667 211.04 166.866 214.164 165.043Z" fill="white"/>
<path d="M355.568 369.281C351.859 369.605 348.124 369.615 344.413 369.297C343.378 369.209 342.345 369.094 341.316 368.956C341.888 369.033 342.461 369.11 343.033 369.187C338.587 368.584 334.208 367.523 329.98 366.02C328.784 365.596 327.602 365.135 326.432 364.643C326.946 364.86 327.46 365.077 327.975 365.294C323.837 363.545 319.878 361.381 316.171 358.842C315.112 358.117 314.075 357.361 313.058 356.578C313.494 356.915 313.929 357.252 314.366 357.588C310.771 354.811 307.454 351.681 304.477 348.249C303.629 347.272 302.81 346.27 302.017 345.246C302.354 345.682 302.691 346.118 303.027 346.554C300.236 342.936 297.803 339.046 295.784 334.946C295.2 333.762 294.652 332.56 294.137 331.344C294.354 331.858 294.571 332.372 294.788 332.887C292.961 328.551 291.579 324.032 290.676 319.414C290.412 318.065 290.19 316.708 290.005 315.346C290.082 315.918 290.159 316.491 290.236 317.063C290.119 316.184 290.017 315.302 289.932 314.418C289.966 313.529 289.781 312.7 289.376 311.93C289.115 311.129 288.67 310.436 288.04 309.85C287.455 309.221 286.762 308.775 285.961 308.515C285.192 308.111 284.362 307.925 283.472 307.959C281.802 308.034 280.069 308.582 278.905 309.851C278.568 310.286 278.231 310.723 277.895 311.158C277.31 312.166 277.016 313.252 277.013 314.418C277.411 318.557 278.057 322.687 279.09 326.716C280.091 330.621 281.489 334.364 283.067 338.068C285.967 344.873 290.01 351.089 294.78 356.73C299.454 362.257 305.045 367.045 311.118 370.975C313.946 372.805 316.91 374.423 319.981 375.807C323.526 377.405 327.154 378.814 330.902 379.857C334.723 380.919 338.623 381.578 342.561 382.03C346.02 382.428 349.511 382.542 352.988 382.375C353.849 382.334 354.709 382.274 355.568 382.199C356.457 382.233 357.287 382.048 358.057 381.643C358.857 381.382 359.551 380.937 360.136 380.307C360.766 379.722 361.211 379.029 361.471 378.228C361.876 377.458 362.061 376.629 362.028 375.739C361.953 374.069 361.404 372.336 360.136 371.172C358.937 370.072 357.256 369.133 355.568 369.281Z" fill="white"/>
</mask>
<g mask="url(#mask0_85_496)">
<rect x="127.305" y="118" width="299" height="321" fill="url(#paint2_linear_85_496)"/>
</g>
<line x1="84.5" y1="276.5" x2="481.5" y2="276.5" stroke="#678D3D" stroke-width="13" stroke-linecap="round"/>
<defs>
<linearGradient id="paint0_linear_85_496" x1="283" y1="34" x2="283" y2="532" gradientUnits="userSpaceOnUse">
<stop stop-color="#678D3D"/>
<stop offset="1" stop-color="#EBEB80"/>
</linearGradient>
<linearGradient id="paint1_linear_85_496" x1="283" y1="0" x2="283" y2="566" gradientUnits="userSpaceOnUse">
<stop stop-color="#678D3D"/>
<stop offset="1" stop-color="#EBEB80"/>
</linearGradient>
<linearGradient id="paint2_linear_85_496" x1="276.805" y1="118" x2="276.805" y2="439" gradientUnits="userSpaceOnUse">
<stop offset="0.496283" stop-color="#678D3D"/>
<stop offset="0.526329" stop-color="#EDED95"/>
</linearGradient>
</defs>
</svg>
