<svg width="400" height="95" viewBox="0 0 400 95" fill="none" xmlns="http://www.w3.org/2000/svg">
<path d="M307.035 57.4777L307.06 74.2256L306.948 27.5497L307.035 57.4777ZM307.035 57.4777L323.895 40.445M307.035 57.4777L323.981 74.2813M211.002 57.6945C211.094 54.0427 210.016 50.457 207.923 47.4625C204.876 43.1826 199.946 40.2592 194.532 40.1973C194.167 40.1973 193.814 40.1973 193.449 40.222C191.306 40.3521 189.237 40.6556 187.404 41.4174C175.338 46.4343 173.201 63.1822 183.378 70.7571C192.191 77.3224 205.012 74.6405 209.453 64.6253C210.415 62.4375 210.941 60.0834 211.002 57.6945ZM211.002 57.6945V27.4072M292.387 42.1916C289.885 40.5813 286.974 39.9929 284.087 39.9991C283.778 39.9991 283.456 40.0176 283.177 40.03C274.84 40.3893 267.117 46.2733 267.117 57.6945C267.117 71.1968 281.591 78.4869 292.412 72.1197M341.002 70.6518L366.606 48.7074C366.606 48.7074 365.987 47.5306 365.578 46.9918C362.135 42.3651 356.87 40.0548 351.32 40.0548C337.62 40.0548 327.344 57.7751 341.002 70.6518ZM341.002 70.6518C341.949 71.5375 343.25 72.2374 344.693 72.8382C349.71 74.9316 356.566 74.7582 360.283 72.0082L341.002 70.6456V70.6518ZM396.813 40.445C392.601 40.4574 388.507 41.9315 385.466 44.7682C380.679 48.726 379.644 53.7182 379.7 60.0234L379.836 74.368M239.022 40.1167C238.632 40.1167 238.248 40.1601 237.858 40.1663C227.464 40.3521 219.97 51.154 222.243 61.163C224.454 70.9181 235.114 76.6969 244.318 73.5071C255.045 70.6951 259.418 57.1928 253.528 48.0695C250.307 43.0835 244.85 40.0053 239.022 40.1167Z" stroke="white" stroke-width="6" stroke-linecap="round" stroke-linejoin="round"/>
<path d="M97.0868 29.9776H112.076V45.3009H119.657C123.156 45.3009 126.755 44.6753 130.068 43.5542C131.697 42.9968 133.524 42.2288 135.135 41.2626C133.017 38.5002 131.939 35.0131 131.617 31.5756C131.183 26.8993 132.131 20.8109 135.296 17.1504L136.869 15.3295L138.746 16.8407C143.478 20.6375 147.448 25.9455 148.154 31.9906C153.84 30.3183 160.523 30.7147 165.54 33.6071L167.602 34.7963L166.518 36.9084C162.276 45.1956 153.406 47.7598 144.735 47.3014C131.753 79.6265 103.503 94.9312 69.2522 94.9312C51.5505 94.9312 35.3106 88.3101 26.0696 72.609C25.5245 71.6366 25.06 70.6146 24.5707 69.6112C21.4429 62.699 20.4085 55.1303 21.1084 47.5616L21.3252 45.3009H34.14V29.9776H49.1288V14.9888H79.1064V0H97.0868V29.9776Z" fill="white"/>
<mask id="mask0_59_426" style="mask-type:alpha" maskUnits="userSpaceOnUse" x="23" y="1" width="142" height="92">
<path d="M50.2311 1.31308V31.4641H35.8121V46.5396H23.7344C23.6848 46.9732 23.6477 47.4067 23.6043 47.8465C22.8487 56.0656 24.2856 63.6405 27.5745 70.1129L28.6832 72.1011C29.3459 73.2903 30.1201 74.4114 30.9377 75.5077C31.7491 76.5916 32.0402 77.1924 32.5542 77.9232C41.2626 87.7093 54.2508 92.4165 69.2397 92.4165C102.438 92.4165 130.619 77.7126 143.087 44.6753C151.932 45.5796 160.417 43.3127 164.282 35.7626C158.126 32.2074 150.204 33.347 145.639 35.6387L157.729 1.30688L110.533 31.4641H95.4577V1.31308H50.2311Z" fill="white"/>
</mask>
<g mask="url(#mask0_59_426)">
<path d="M81.6023 2.49609H94.5905V15.4905H81.6023V2.49609Z" fill="white"/>
<path d="M92.9989 14.4066V3.57996M83.2004 14.4066V3.57996M85.1453 14.4066V3.57996M87.1149 14.4066V3.57996M89.0845 14.4066V3.57996M91.0479 14.4066V3.57996" stroke="white" stroke-width="19.5"/>
<path d="M96.5911 15.4843H109.579V2.49609H96.5911V15.4843Z" fill="white"/>
<path d="M107.988 3.57996V14.4066M98.1829 3.57996V14.4066M100.134 3.57996V14.4066M102.103 3.57996V14.4066M104.067 3.57996V14.4066M106.036 3.57996V14.4066" stroke="white" stroke-width="19.5"/>
<path d="M21.6472 17.4911H34.6416V30.4793H21.6472V17.4911Z" fill="white"/>
<path d="M21.6472 32.4736H34.6416V45.4681H21.6472V32.4736Z" fill="white"/>
<path d="M33.0436 29.3954V18.5687M23.2451 29.3954V18.5687M25.1899 29.3954V18.5687M27.1595 29.3954V18.5687M29.1292 29.3954V18.5687M31.0988 29.3954V18.5687" stroke="white" stroke-width="19.5"/>
<path d="M33.0436 44.3842V33.5576M23.2451 44.3842V33.5576M25.1899 44.3842V33.5576M27.1595 44.3842V33.5576M29.1292 44.3842V33.5576M31.0988 44.3842V33.5576" stroke="white" stroke-width="19.5"/>
<path d="M36.636 45.4619H49.6304V32.4736H36.636V45.4619Z" fill="white"/>
<path d="M36.636 30.4731H49.6304V17.4849H36.636V30.4731Z" fill="white"/>
<path d="M48.0324 33.5576V44.3842M38.2339 33.5576V44.3842M40.1787 33.5576V44.3842M42.1483 33.5576V44.3842M44.1179 33.5576V44.3842M46.0875 33.5576V44.3842" stroke="white" stroke-width="19.5"/>
<path d="M48.0324 18.5687V29.3954M38.2339 18.5687V29.3954M40.1787 18.5687V29.3954M42.1483 18.5687V29.3954M44.1179 18.5687V29.3954M46.0875 18.5687V29.3954" stroke="white" stroke-width="19.5"/>
<path d="M51.6248 17.4911H64.6192V30.4793H51.6248V17.4911Z" fill="white"/>
<path d="M51.6248 32.4736H64.613V45.4681H51.6248V32.4736Z" fill="white"/>
<path d="M63.0214 29.3954V18.5687M53.2229 29.3954V18.5687M55.1677 29.3954V18.5687M57.1373 29.3954V18.5687M59.1069 29.3954V18.5687M61.0765 29.3954V18.5687" stroke="white" stroke-width="19.5"/>
<path d="M63.0214 44.3842V33.5576M53.2229 44.3842V33.5576M55.1677 44.3842V33.5576M57.1373 44.3842V33.5576M59.1069 44.3842V33.5576M61.0765 44.3842V33.5576" stroke="white" stroke-width="19.5"/>
<path d="M66.6135 45.4619H79.6018V32.4736H66.6135V45.4619Z" fill="white"/>
<path d="M66.6135 30.4731H79.6018V17.4849H66.6135V30.4731Z" fill="white"/>
<path d="M78.0101 33.5576V44.3842M68.2117 33.5576V44.3842M70.1565 33.5576V44.3842M72.1261 33.5576V44.3842M74.0957 33.5576V44.3842M76.0591 33.5576V44.3842" stroke="white" stroke-width="19.5"/>
<path d="M78.0101 18.5687V29.3954M68.2117 18.5687V29.3954M70.1565 18.5687V29.3954M72.1261 18.5687V29.3954M74.0957 18.5687V29.3954M76.0591 18.5687V29.3954" stroke="white" stroke-width="19.5"/>
<path d="M81.6023 17.4911H94.5905V30.4793H81.6023V17.4911Z" fill="white"/>
<path d="M81.6023 32.4736H94.5905V45.4681H81.6023V32.4736Z" fill="white"/>
<path d="M92.9989 29.3954V18.5687M83.2004 29.3954V18.5687M85.1453 29.3954V18.5687M87.1149 29.3954V18.5687M89.0845 29.3954V18.5687M91.0479 29.3954V18.5687" stroke="white" stroke-width="19.5"/>
<path d="M92.9989 44.3842V33.5576M83.2004 44.3842V33.5576M85.1453 44.3842V33.5576M87.1149 44.3842V33.5576M89.0845 44.3842V33.5576M91.0479 44.3842V33.5576" stroke="white" stroke-width="19.5"/>
<path d="M96.5911 45.4619H109.579V32.4736H96.5911V45.4619Z" fill="white"/>
<path d="M96.5911 30.4731H109.579V17.4849H96.5911V30.4731Z" fill="white"/>
<path d="M107.988 33.5576V44.3842M98.1829 33.5576V44.3842M100.134 33.5576V44.3842M102.103 33.5576V44.3842M104.067 33.5576V44.3842M106.036 33.5576V44.3842" stroke="white" stroke-width="19.5"/>
<path d="M107.988 18.5687V29.3954M98.1829 18.5687V29.3954M100.134 18.5687V29.3954M102.103 18.5687V29.3954M104.067 18.5687V29.3954M106.036 18.5687V29.3954" stroke="white" stroke-width="19.5"/>
</g>
<mask id="mask1_59_426" style="mask-type:alpha" maskUnits="userSpaceOnUse" x="23" y="1" width="142" height="92">
<path d="M50.2311 1.31308V31.4641H35.8121V46.5396H23.7344C23.6848 46.9732 23.6477 47.4067 23.6043 47.8465C22.8487 56.0656 24.2856 63.6405 27.5745 70.1129L28.6832 72.1011C29.3459 73.2903 30.1201 74.4114 30.9377 75.5077C31.7491 76.5916 32.0402 77.1924 32.5542 77.9232C41.2626 87.7093 54.2508 92.4165 69.2397 92.4165C102.438 92.4165 130.619 77.7126 143.087 44.6753C151.932 45.5796 160.417 43.3127 164.282 35.7626C158.126 32.2074 150.204 33.347 145.639 35.6387L157.729 1.30688L110.533 31.4641H95.4577V1.31308H50.2311Z" fill="white"/>
</mask>
<g mask="url(#mask1_59_426)">
<path d="M145.652 35.6448C146.655 27.8345 140.808 21.6966 137.185 18.7855C133.01 23.6166 132.354 36.2704 138.913 41.6032C135.258 44.8487 127.547 47.7969 119.656 47.7969H22.7C21.932 56.0345 22.7 95.6991 22.7 95.6991H164.939L164.295 35.7749C158.132 32.2197 150.21 33.3531 145.652 35.6448Z" fill="black"/>
</g>
<mask id="mask2_59_426" style="mask-type:alpha" maskUnits="userSpaceOnUse" x="23" y="1" width="142" height="92">
<path d="M50.2311 1.31308V31.4641H35.8121V46.5396H23.7344C23.6848 46.9732 23.6477 47.4067 23.6043 47.8465C22.8487 56.0656 24.2856 63.6405 27.5745 70.1129L28.6832 72.1011C29.3459 73.2903 30.1201 74.4114 30.9377 75.5077C31.7491 76.5916 32.0402 77.1924 32.5542 77.9232C41.2626 87.7093 54.2508 92.4165 69.2397 92.4165C102.438 92.4165 130.619 77.7126 143.087 44.6753C151.932 45.5796 160.417 43.3127 164.282 35.7626C158.126 32.2074 150.204 33.347 145.639 35.6387L157.729 1.30688L110.533 31.4641H95.4577V1.31308H50.2311Z" fill="white"/>
</mask>
<g mask="url(#mask2_59_426)">
<path d="M22.7002 58.3386V95.6992H164.939V58.3386" fill="white" fill-opacity="0.17"/>
</g>
<mask id="mask3_59_426" style="mask-type:alpha" maskUnits="userSpaceOnUse" x="23" y="1" width="142" height="92">
<path d="M50.2311 1.31308V31.4641H35.8121V46.5396H23.7344C23.6848 46.9732 23.6477 47.4067 23.6043 47.8465C22.8487 56.0656 24.2856 63.6405 27.5745 70.1129L28.6832 72.1011C29.3459 73.2903 30.1201 74.4114 30.9377 75.5077C31.7491 76.5916 32.0402 77.1924 32.5542 77.9232C41.2626 87.7093 54.2508 92.4165 69.2397 92.4165C102.438 92.4165 130.619 77.7126 143.087 44.6753C151.932 45.5796 160.417 43.3127 164.282 35.7626C158.126 32.2074 150.204 33.347 145.639 35.6387L157.729 1.30688L110.533 31.4641H95.4577V1.31308H50.2311Z" fill="white"/>
</mask>
<g mask="url(#mask3_59_426)">
<path d="M73.3276 92.3484C64.452 88.1366 59.5776 82.4136 56.8709 76.1642L29.9097 77.341L43.6783 95.6992L73.3276 92.3484Z" fill="white"/>
</g>
<mask id="mask4_59_426" style="mask-type:alpha" maskUnits="userSpaceOnUse" x="23" y="1" width="142" height="92">
<path d="M50.2311 1.31308V31.4641H35.8121V46.5396H23.7344C23.6848 46.9732 23.6477 47.4067 23.6043 47.8465C22.8487 56.0656 24.2856 63.6405 27.5745 70.1129L28.6832 72.1011C29.3459 73.2903 30.1201 74.4114 30.9377 75.5077C31.7491 76.5916 32.0402 77.1924 32.5542 77.9232C41.2626 87.7093 54.2508 92.4165 69.2397 92.4165C102.438 92.4165 130.619 77.7126 143.087 44.6753C151.932 45.5796 160.417 43.3127 164.282 35.7626C158.126 32.2074 150.204 33.347 145.639 35.6387L157.729 1.30688L110.533 31.4641H95.4577V1.31308H50.2311Z" fill="white"/>
</mask>
<g mask="url(#mask4_59_426)">
<path d="M146.259 35.3537V35.3723C132.583 52.9997 112.974 68.3972 91.915 76.4862C73.1357 83.7019 56.7595 83.7329 45.4621 77.9418C44.242 77.2543 43.0466 76.4863 41.8512 75.7678C33.5702 69.9767 28.9063 60.4073 29.2965 47.7845H22.7002V95.6992H164.939V32.7648H148.557L146.265 35.3476L146.259 35.3537Z" fill="white" fill-opacity="0.085"/>
</g>
<path d="M30.3184 76.7093C39.6089 77.2171 49.5189 77.31 58.1591 74.6034" stroke="white" stroke-width="6.25" stroke-linecap="round"/>
<path d="M67.3878 70.113C67.3878 71.0633 67.0103 71.9746 66.3384 72.6466C65.6664 73.3185 64.755 73.696 63.8047 73.696C62.8545 73.696 61.9431 73.3185 61.2711 72.6466C60.5992 71.9746 60.2217 71.0633 60.2217 70.113C60.2217 69.1627 60.5992 68.2513 61.2711 67.5794C61.9431 66.9074 62.8545 66.5299 63.8047 66.5299C64.755 66.5299 65.6664 66.9074 66.3384 67.5794C67.0103 68.2513 67.3878 69.1627 67.3878 70.113Z" fill="white"/>
<path d="M64.7306 67.7159C64.5906 67.7968 64.4711 67.909 64.3817 68.0437C64.2923 68.1785 64.2353 68.3321 64.2152 68.4926C64.1951 68.6531 64.2125 68.816 64.266 68.9687C64.3194 69.1213 64.4075 69.2594 64.5234 69.3723C64.6392 69.4852 64.7796 69.5696 64.9336 69.6191C65.0876 69.6686 65.2509 69.6817 65.4108 69.6575C65.5707 69.6332 65.7228 69.5722 65.8552 69.4793C65.9876 69.3864 66.0966 69.2641 66.1738 69.1219C66.4009 69.6673 66.4328 70.2744 66.264 70.8406C66.0952 71.4068 65.736 71.8973 65.2473 72.2292C64.7585 72.5611 64.1701 72.7141 63.5816 72.6622C62.9931 72.6104 62.4405 72.3568 62.0173 71.9446C61.5942 71.5323 61.3263 70.9865 61.2592 70.3996C61.192 69.8126 61.3295 69.2204 61.6486 68.7231C61.9676 68.2259 62.4486 67.8541 63.0102 67.6706C63.5718 67.487 64.1795 67.5031 64.7306 67.7159ZM0.415039 59.1005H167.119C163.49 58.1776 155.636 56.9327 156.93 52.1759C150.334 59.8128 134.416 57.5335 130.396 53.7677C125.925 60.2587 99.88 57.7936 98.0652 52.7395C92.4599 59.3173 75.0803 59.3173 69.4688 52.7395C67.6541 57.7936 41.6157 60.2587 37.1376 53.7677C33.1241 57.5335 17.2062 59.8128 10.6037 52.1759C11.9044 56.9327 4.04456 58.1838 0.415039 59.1005Z" fill="white"/>
</svg>
