<svg width="380" height="95" viewBox="0 0 380 95" fill="none" xmlns="http://www.w3.org/2000/svg">
<g clip-path="url(#clip0_59_533)">
<path d="M108.095 54.6222C108.09 54.9522 107.954 55.2666 107.717 55.4967C107.481 55.7268 107.162 55.8538 106.832 55.8501H83.5732C84.1696 61.6035 88.4847 66.8657 94.5889 66.8657C98.7636 66.8657 101.851 65.2871 104.166 61.9543C104.274 61.7792 104.423 61.6332 104.601 61.5293C104.778 61.4253 104.978 61.3664 105.184 61.3579C105.337 61.3535 105.489 61.3805 105.632 61.4371C105.774 61.4938 105.904 61.5789 106.012 61.6873C106.12 61.7957 106.205 61.925 106.262 62.0675C106.319 62.2099 106.346 62.3624 106.341 62.5156C106.342 62.7272 106.281 62.9345 106.166 63.112C103.815 67.1815 99.1495 69.1811 94.5889 69.1811C86.7657 69.1811 81.1526 62.1648 81.1526 54.6924C81.1526 47.22 86.7306 40.2036 94.5889 40.2036C102.447 40.2036 108.06 47.1498 108.095 54.6222ZM105.605 53.5347C105.113 47.7813 100.693 42.519 94.5889 42.519C88.4847 42.519 84.1696 47.7813 83.5732 53.5347H105.605Z" fill="white"/>
<path d="M136.371 40.765C136.675 40.7738 136.965 40.8986 137.18 41.1138C137.395 41.3291 137.52 41.6184 137.529 41.9227C137.533 42.0759 137.506 42.2284 137.45 42.3708C137.393 42.5133 137.308 42.6426 137.199 42.751C137.091 42.8594 136.962 42.9445 136.819 43.0011C136.677 43.0578 136.524 43.0847 136.371 43.0804H130.127V67.6025C130.124 67.9087 130.001 68.2016 129.784 68.4181C129.568 68.6346 129.275 68.7575 128.969 68.7602C128.665 68.7514 128.375 68.6266 128.16 68.4113C127.945 68.1961 127.82 67.9068 127.811 67.6025V43.0804H121.812C121.659 43.0847 121.506 43.0578 121.364 43.0011C121.222 42.9445 121.092 42.8594 120.984 42.751C120.876 42.6426 120.79 42.5133 120.734 42.3708C120.677 42.2284 120.65 42.0759 120.655 41.9227C120.657 41.6165 120.78 41.3236 120.997 41.1071C121.213 40.8906 121.506 40.7677 121.812 40.765H127.811V31.8191C127.812 31.5227 127.918 31.2362 128.111 31.0112C128.304 30.7861 128.571 30.6372 128.864 30.5913C129.027 30.5695 129.194 30.5834 129.352 30.6319C129.509 30.6804 129.655 30.7624 129.778 30.8723C129.901 30.9823 130 31.1175 130.066 31.2688C130.132 31.4201 130.165 31.5839 130.162 31.749V40.765H136.371Z" fill="white"/>
<path d="M174.435 52.6226V67.4622C174.426 67.7664 174.301 68.0558 174.086 68.271C173.871 68.4863 173.581 68.6111 173.277 68.6199C173.124 68.6242 172.971 68.5973 172.829 68.5406C172.687 68.484 172.557 68.3989 172.449 68.2905C172.34 68.1821 172.255 68.0528 172.199 67.9103C172.142 67.7679 172.115 67.6154 172.119 67.4622V52.6226C172.119 47.6059 169.278 42.6243 163.7 42.6243C156.543 42.6243 153.456 48.8689 153.877 55.2888C153.877 55.4642 153.947 56.201 153.947 56.3062V67.4271C153.946 67.7235 153.84 68.01 153.647 68.2351C153.454 68.4602 153.187 68.609 152.895 68.655C152.731 68.6767 152.564 68.6629 152.407 68.6143C152.249 68.5658 152.103 68.4838 151.98 68.3739C151.857 68.264 151.759 68.1288 151.693 67.9775C151.626 67.8262 151.594 67.6624 151.597 67.4973V18.6986C151.599 18.3924 151.722 18.0995 151.939 17.883C152.155 17.6665 152.448 17.5436 152.754 17.5409C153.059 17.5497 153.348 17.6745 153.563 17.8897C153.778 18.105 153.903 18.3943 153.912 18.6986V46.2728C155.912 42.6945 159.49 40.2739 163.665 40.2739C170.541 40.2739 174.435 46.2728 174.435 52.6226Z" fill="white"/>
<path d="M216.217 54.6222C216.212 54.9522 216.076 55.2666 215.839 55.4967C215.602 55.7268 215.284 55.8538 214.954 55.8501H191.695C192.291 61.6035 196.607 66.8657 202.711 66.8657C206.885 66.8657 209.973 65.2871 212.288 61.9543C212.396 61.7792 212.545 61.6332 212.722 61.5293C212.9 61.4253 213.1 61.3664 213.305 61.3579C213.459 61.3535 213.611 61.3805 213.754 61.4371C213.896 61.4938 214.025 61.5789 214.134 61.6873C214.242 61.7957 214.327 61.925 214.384 62.0675C214.44 62.2099 214.467 62.3624 214.463 62.5156C214.464 62.7272 214.403 62.9345 214.288 63.112C211.937 67.1815 207.271 69.1811 202.711 69.1811C194.888 69.1811 189.274 62.1648 189.274 54.6924C189.274 47.22 194.852 40.2036 202.711 40.2036C210.499 40.2036 216.182 47.1498 216.217 54.6222ZM213.691 53.5347C213.2 47.7813 208.78 42.519 202.676 42.519C196.571 42.519 192.256 47.7813 191.66 53.5347H213.691Z" fill="white"/>
<path d="M244.809 41.8526C244.831 42.164 244.729 42.4716 244.525 42.7082C244.322 42.9449 244.032 43.0913 243.721 43.1155C236.88 44.1329 233.793 49.7109 233.793 56.201V67.3219C233.792 67.6183 233.686 67.9048 233.493 68.1299C233.3 68.3549 233.033 68.5038 232.741 68.5497C232.577 68.5715 232.41 68.5576 232.253 68.5091C232.095 68.4606 231.949 68.3786 231.826 68.2687C231.703 68.1588 231.605 68.0235 231.539 67.8722C231.472 67.721 231.44 67.5572 231.443 67.392V42.028C231.443 41.7315 231.549 41.445 231.742 41.22C231.935 40.9949 232.202 40.846 232.495 40.8001C232.659 40.7784 232.825 40.7922 232.983 40.8407C233.141 40.8892 233.286 40.9712 233.41 41.0812C233.533 41.1911 233.631 41.3263 233.697 41.4776C233.763 41.6289 233.796 41.7927 233.793 41.9578V47.1148C235.723 43.8522 239.546 40.765 243.546 40.765C244.142 40.765 244.809 41.186 244.809 41.8526Z" fill="white"/>
<path d="M283.048 54.6222C283.042 54.9522 282.906 55.2666 282.67 55.4967C282.433 55.7268 282.115 55.8538 281.785 55.8501H258.526C259.122 61.6035 263.437 66.8657 269.541 66.8657C273.716 66.8657 276.803 65.2871 279.119 61.9543C279.226 61.7792 279.376 61.6332 279.553 61.5293C279.73 61.4253 279.931 61.3664 280.136 61.3579C280.289 61.3535 280.442 61.3805 280.584 61.4371C280.727 61.4938 280.856 61.5789 280.964 61.6873C281.073 61.7957 281.158 61.925 281.214 62.0675C281.271 62.2099 281.298 62.3624 281.294 62.5156C281.294 62.7272 281.234 62.9345 281.118 63.112C278.768 67.1815 274.102 69.1811 269.541 69.1811C261.718 69.1811 256.105 62.1648 256.105 54.6924C256.105 47.22 261.683 40.2036 269.541 40.2036C277.4 40.2036 283.013 47.1498 283.048 54.6222ZM280.557 53.5347C280.066 47.7813 275.646 42.519 269.541 42.519C263.437 42.519 259.122 47.7813 258.526 53.5347H280.557Z" fill="white"/>
<path d="M320.655 42.1332V67.6025C320.646 67.9068 320.522 68.1962 320.306 68.4114C320.091 68.6266 319.802 68.7514 319.498 68.7602C319.344 68.7646 319.192 68.7376 319.049 68.681C318.907 68.6244 318.778 68.5392 318.669 68.4309C318.561 68.3225 318.476 68.1931 318.419 68.0507C318.363 67.9083 318.336 67.7558 318.34 67.6025V62.7613C316.41 66.5852 313.008 69.3566 308.657 69.3566C301.746 69.3566 297.922 63.3577 297.922 57.0079V42.0981C297.925 41.7919 298.048 41.4991 298.264 41.2825C298.481 41.066 298.774 40.9432 299.08 40.9404C299.384 40.9493 299.674 41.0741 299.889 41.2893C300.104 41.5045 300.229 41.7939 300.238 42.0981V57.0079C300.238 62.0245 303.079 67.0062 308.657 67.0062C316.481 67.0062 318.34 59.6741 318.34 51.5702V42.063C318.343 41.8754 318.39 41.691 318.478 41.5255C318.567 41.3599 318.694 41.218 318.848 41.1115C319.003 41.005 319.181 40.9371 319.367 40.9134C319.553 40.8898 319.742 40.9111 319.919 40.9755C320.139 41.078 320.326 41.2415 320.456 41.4466C320.587 41.6518 320.656 41.89 320.655 42.1332Z" fill="white"/>
<path d="M379.558 52.5173V67.4271C379.549 67.7313 379.424 68.0207 379.209 68.2359C378.994 68.4511 378.704 68.5759 378.4 68.5848C378.247 68.5891 378.094 68.5622 377.952 68.5055C377.809 68.4489 377.68 68.3638 377.572 68.2554C377.463 68.147 377.378 68.0176 377.322 67.8752C377.265 67.7328 377.238 67.5803 377.242 67.4271V52.5173C377.242 47.5006 374.401 42.5892 368.823 42.5892C361.806 42.5892 359.14 50.0967 359.14 55.9203V67.4271C359.131 67.7313 359.007 68.0207 358.791 68.2359C358.576 68.4511 358.287 68.5759 357.982 68.5848C357.829 68.5891 357.677 68.5622 357.534 68.5055C357.392 68.4489 357.263 68.3638 357.154 68.2554C357.046 68.147 356.961 68.0176 356.904 67.8752C356.847 67.7328 356.82 67.5803 356.825 67.4271V52.5173C356.825 47.5006 353.983 42.5892 348.405 42.5892C341.319 42.5892 338.407 48.1672 338.652 55.6045C338.652 55.7799 338.723 56.0957 338.652 56.2009V67.392C338.652 67.6884 338.546 67.9749 338.353 68.2C338.16 68.425 337.893 68.5739 337.6 68.6198C337.436 68.6416 337.27 68.6277 337.112 68.5792C336.954 68.5307 336.809 68.4487 336.685 68.3388C336.562 68.2289 336.464 68.0936 336.398 67.9423C336.332 67.791 336.299 67.6272 336.302 67.4621V42.0279C336.303 41.7315 336.409 41.445 336.602 41.2199C336.795 40.9948 337.062 40.846 337.354 40.8C337.518 40.7783 337.685 40.7921 337.842 40.8407C338 40.8892 338.146 40.9712 338.269 41.0811C338.392 41.191 338.49 41.3262 338.556 41.4775C338.623 41.6288 338.655 41.7926 338.652 41.9577V46.2026C340.652 42.6243 344.23 40.2738 348.405 40.2738C353.141 40.2738 356.825 43.2908 358.333 47.676C360.263 43.3259 364.017 40.2738 368.823 40.2738C375.664 40.2738 379.558 46.2026 379.558 52.5173Z" fill="white"/>
<path opacity="0.6" d="M29.7929 35.1168L0.675049 48.3426L29.7929 65.5678L58.9458 48.3426L29.7929 35.1168Z" fill="white"/>
<path opacity="0.45" d="M0.675049 48.3426L29.7929 65.5677V0L0.675049 48.3426Z" fill="white"/>
<path opacity="0.8" d="M29.793 0V65.5677L58.9459 48.3426L29.793 0Z" fill="white"/>
<path opacity="0.45" d="M0.675049 53.8855L29.7929 94.9311V71.0755L0.675049 53.8855Z" fill="white"/>
<path opacity="0.8" d="M29.793 71.0755V94.9311L58.9459 53.8855L29.793 71.0755Z" fill="white"/>
</g>
<defs>
<clipPath id="clip0_59_533">
<rect width="378.883" height="94.9312" fill="white" transform="translate(0.675049)"/>
</clipPath>
</defs>
</svg>
