<svg width="334" height="95" viewBox="0 0 334 95" fill="none" xmlns="http://www.w3.org/2000/svg">
<path fill-rule="evenodd" clip-rule="evenodd" d="M310.576 39.259C310.276 39.3189 309.975 39.9802 309.975 40.3405C309.915 42.7458 309.855 49.1187 309.855 53.4473C309.855 53.5678 310.035 53.8082 310.216 53.8082C311.117 53.8681 313.282 53.9281 315.145 53.9281C317.731 53.9281 319.234 53.5678 320.076 53.2075C322.24 52.1247 323.262 49.78 323.262 47.1942C323.262 41.3633 319.174 39.1385 313.101 39.1385C312.68 39.0785 311.479 39.0785 310.576 39.259ZM326.088 66.1332C326.088 60.1811 321.699 56.8741 313.763 56.8741C313.402 56.8741 310.877 56.8142 310.276 56.9341C310.095 56.9946 309.855 57.1152 309.855 57.2956C309.855 61.5636 309.795 68.358 309.975 71.0031C310.095 72.1451 310.937 73.7687 311.96 74.2495C313.041 74.8508 315.506 74.9707 317.19 74.9707C321.939 74.9707 326.088 72.3256 326.088 66.1332ZM298.312 35.9527C298.913 35.9527 300.716 36.1325 305.346 36.1325C309.735 36.1325 313.222 36.0126 317.49 36.0126C322.72 36.0126 329.935 37.8759 329.935 45.6919C329.935 49.5396 327.229 52.6062 323.683 54.1092C323.503 54.1691 323.503 54.289 323.683 54.3489C328.732 55.6122 333.182 58.738 333.182 64.6295C333.182 70.4017 329.575 74.069 324.344 76.3538C321.157 77.7363 317.19 78.2171 313.162 78.2171C310.095 78.2171 301.859 77.8568 297.29 77.9773C296.809 77.7962 297.711 75.6319 298.131 75.2717C299.214 75.2111 300.055 75.1511 301.198 74.7902C302.821 74.37 303.001 73.8885 303.241 71.4239C303.362 69.3196 303.362 61.8639 303.362 56.5738C303.362 49.2992 303.422 44.3693 303.362 41.9647C303.302 40.1014 302.641 39.4994 301.318 39.1385C300.295 38.9587 298.612 38.7176 297.229 38.5378C296.928 38.2368 297.951 36.1924 298.312 35.9527ZM263.621 73.3478C265.065 74.4892 267.891 74.97 270.416 74.97C273.662 74.97 276.909 74.37 280.035 71.5432C283.222 68.6583 285.446 64.2093 285.446 57.1152C285.446 50.3207 282.861 44.7895 277.57 41.5438C274.564 39.6792 270.716 38.8987 266.267 38.8987C264.945 38.8987 263.682 38.9587 262.901 39.3189C262.72 39.4395 262.299 39.9802 262.299 40.2806C262.179 41.4832 262.179 50.7416 262.179 56.1529C262.179 61.744 262.179 69.56 262.299 70.4617C262.299 71.364 262.72 72.7465 263.622 73.3478H263.621ZM249.974 35.952C251.117 35.952 255.505 36.1325 257.609 36.1325C261.398 36.1325 264.103 35.9527 271.257 35.9527C277.269 35.9527 282.319 37.5755 285.927 40.6415C290.315 44.4293 292.601 49.6601 292.601 56.0324C292.601 65.111 288.452 70.3418 284.303 73.3478C280.156 76.4137 274.744 78.2171 267.049 78.2171C262.961 78.2171 255.927 78.0972 250.094 78.0366H250.034C249.734 77.4959 250.515 75.3915 250.996 75.3316C252.56 75.1511 252.981 75.0905 253.762 74.7909C255.024 74.3094 255.265 73.6481 255.446 71.4239C255.626 67.2752 255.566 62.2854 255.566 56.6337C255.566 52.6062 255.626 44.7296 255.505 42.2044C255.325 40.1007 254.424 39.5593 252.62 39.1984C251.718 39.0186 250.515 38.7776 248.832 38.5977C248.591 38.1762 249.674 36.3123 249.974 35.952Z" fill="white"/>
<path fill-rule="evenodd" clip-rule="evenodd" d="M177.228 75.6919C175.725 75.5114 174.643 75.2717 173.32 74.6703C173.14 74.5498 172.839 73.9491 172.839 73.7081C172.719 71.6037 172.719 65.5918 172.719 61.5642C172.719 58.3172 172.178 55.4916 170.795 53.5078C169.172 51.2224 166.828 49.9005 163.821 49.9005C161.176 49.9005 157.628 51.7039 154.682 54.229C154.622 54.289 154.142 54.7105 154.202 54.0486C154.202 53.3873 154.322 52.0648 154.382 51.1625C154.443 50.3207 153.961 49.9005 153.961 49.9005C152.037 50.8621 146.627 52.1247 144.642 52.3045C143.2 52.6062 142.839 53.9886 144.343 54.4694H144.402C146.025 54.9502 147.108 55.4916 147.949 56.033C148.55 56.5138 148.49 57.1751 148.49 57.7165C148.55 62.2248 148.55 69.1391 148.37 72.9269C148.31 74.4299 147.889 74.9707 146.807 75.2111L146.927 75.1511C146.085 75.3316 145.424 75.5114 144.402 75.6319C144.041 75.9929 144.041 77.9167 144.402 78.3376C145.063 78.3376 148.55 78.1571 151.437 78.1571C155.404 78.1571 157.449 78.3376 158.47 78.3376C158.891 77.8568 159.012 76.0528 158.771 75.6319C157.628 75.572 156.787 75.4521 156.006 75.2111C154.923 74.97 154.622 74.4299 154.562 73.1673C154.443 69.9802 154.443 63.247 154.443 58.6781C154.443 57.4155 154.803 56.8142 155.163 56.4532C156.546 55.2512 158.771 54.4095 160.755 54.4095C162.679 54.4095 163.941 55.0108 164.903 55.7926C166.226 56.8741 166.646 58.4377 166.827 59.5798C167.127 62.1649 167.007 67.2752 167.007 71.7243C167.007 74.1289 166.827 74.7303 165.926 75.0306C165.504 75.2111 164.422 75.4521 163.16 75.5713C162.739 75.9929 162.859 77.8568 163.16 78.2777C164.903 78.2777 166.947 78.0972 169.953 78.0972C173.681 78.0972 176.086 78.2777 177.048 78.2777C177.348 77.9167 177.468 76.1733 177.228 75.6919ZM193.882 52.7267C190.696 52.7267 188.711 55.1913 188.711 59.0384C188.711 62.9467 190.455 67.4557 195.385 67.4557C196.226 67.4557 197.79 67.0948 198.51 66.253C199.653 65.1715 200.435 63.0066 200.435 60.7218C200.435 55.732 197.97 52.7267 193.882 52.7267ZM193.461 79.2992C192.259 79.2992 191.416 79.6601 190.876 79.9611C188.35 81.5833 187.208 83.1469 187.208 85.0115C187.208 86.7542 187.87 88.1367 189.313 89.3394C191.056 90.8424 193.461 91.5642 196.527 91.5642C202.659 91.5642 205.365 88.2572 205.365 85.0115C205.365 82.7261 204.222 81.2231 201.878 80.382C200.195 79.6601 197.129 79.2992 193.461 79.2992ZM193.882 94.9312C190.214 94.9312 187.569 94.1494 185.284 92.406C183.06 90.7225 182.098 88.1973 182.098 86.4539C182.098 85.9731 182.218 84.6499 183.301 83.4479C183.961 82.7261 185.405 81.3436 188.832 78.9989C188.952 78.9389 189.012 78.879 189.012 78.7578C189.012 78.6379 188.891 78.5174 188.771 78.4581C185.946 77.376 185.104 75.6319 184.863 74.6703V74.5498C184.804 74.1889 184.683 73.8286 185.224 73.4677C185.645 73.1673 186.247 72.8064 186.907 72.3862C187.929 71.7842 189.012 71.1229 189.673 70.5816C189.793 70.4617 189.793 70.3418 189.793 70.2213C189.793 70.1007 189.673 69.9802 189.552 69.9209C185.345 68.5378 183.241 65.4113 183.241 60.7218C183.241 57.6559 184.623 54.8903 187.088 53.1469C188.771 51.8244 192.98 50.2009 195.745 50.2009H195.926C198.751 50.2608 200.314 50.8621 202.539 51.6439C203.741 52.0648 204.884 52.2446 206.448 52.2446C208.792 52.2446 209.814 51.5234 210.655 50.6823C210.715 50.8022 210.836 51.1032 210.896 51.8843C210.956 52.6661 210.715 53.8082 210.114 54.6499C209.633 55.3112 208.551 55.7926 207.469 55.7926H207.168C206.086 55.6721 205.605 55.5516 205.605 55.5516L205.365 55.6721C205.305 55.7926 205.365 55.9125 205.425 56.093L205.485 56.2135C205.605 56.7542 205.846 58.3771 205.846 58.7986C205.846 63.7285 203.862 65.8921 201.757 67.5156C199.713 69.0186 197.369 69.9802 194.723 70.2213C194.663 70.2213 194.424 70.2213 193.882 70.2812C193.581 70.2812 193.16 70.3418 193.1 70.3418H193.04C192.559 70.4617 191.357 71.063 191.357 72.0845C191.357 72.9862 191.898 74.069 194.483 74.2495C195.024 74.3094 195.564 74.3094 196.166 74.37C199.593 74.6097 203.862 74.9107 205.846 75.572C208.611 76.5935 210.355 79.0588 210.355 82.0048C210.355 86.4546 207.169 90.6026 201.878 93.1871C199.293 94.3298 196.707 94.9312 193.882 94.9312ZM228.15 53.027C226.888 53.027 225.745 53.3267 224.904 53.9281C222.56 55.3711 221.357 58.2572 221.357 62.4652C221.357 70.3418 225.325 75.873 230.976 75.873C232.66 75.873 233.982 75.3915 235.124 74.4299C236.868 72.9862 237.77 70.1007 237.77 66.0726C237.77 58.2572 233.862 53.0264 228.151 53.0264L228.15 53.027ZM229.233 78.7585C219.012 78.7585 215.345 71.2435 215.345 64.2093C215.345 59.2794 217.329 55.4916 221.296 52.786C224.123 51.0426 227.49 50.081 230.496 50.081C238.311 50.081 243.782 55.6721 243.782 63.7285C243.782 69.1991 241.618 73.5276 237.469 76.1733C235.485 77.4959 232.058 78.7585 229.232 78.7585H229.233ZM122.097 53.0264C120.835 53.0264 119.693 53.3267 118.85 53.9281C116.506 55.3711 115.303 58.2572 115.303 62.4652C115.303 70.3418 119.271 75.873 124.923 75.873C126.606 75.873 127.929 75.3915 129.072 74.4299C130.814 72.9862 131.717 70.1007 131.717 66.0726C131.717 58.2572 127.869 53.0264 122.097 53.0264ZM123.179 78.7585C112.959 78.7585 109.292 71.2435 109.292 64.2093C109.292 59.2794 111.275 55.4916 115.243 52.786C118.069 51.0426 121.436 50.081 124.442 50.081C132.258 50.081 137.729 55.6721 137.729 63.7285C137.729 69.1991 135.564 73.5276 131.416 76.1733C129.492 77.4959 126.065 78.7585 123.179 78.7585ZM54.4611 78.1571C54.3406 77.9773 54.22 77.4359 54.2806 76.7747C54.2806 76.2932 54.4012 75.9929 54.4611 75.873C55.7237 75.6919 56.385 75.5114 57.1062 75.3316C58.3088 75.0306 58.7896 74.37 58.8496 72.867C59.0307 69.2597 59.0307 62.4053 58.9701 57.6559V57.5354C58.9701 56.9946 58.9701 56.3327 58.3088 55.8519C57.3466 55.2512 56.2045 54.7105 54.7015 54.2883C54.1608 54.1092 53.7998 53.8082 53.8598 53.4479C53.8598 53.087 54.2207 52.6661 55.0025 52.5456C56.9863 52.3651 62.1559 51.1032 64.2003 50.2009C64.3208 50.3207 64.5013 50.6823 64.5013 51.1631L64.4413 51.8237C64.3807 52.4856 64.3208 53.2674 64.3208 54.0486C64.3208 54.289 64.5619 54.4694 64.8016 54.4694C64.9221 54.4694 65.0427 54.4095 65.1625 54.3489C69.0103 51.3429 72.4971 50.2608 74.3004 50.2608C77.2471 50.2608 79.5319 51.6439 81.2753 54.5294C81.3952 54.7105 81.5157 54.7704 81.6962 54.7704C81.816 54.7704 81.9958 54.7105 82.0564 54.59C85.6038 51.8843 89.1512 50.2608 91.4953 50.2608C97.0864 50.2608 100.393 54.4095 100.393 61.4437C100.393 63.4275 100.393 66.0126 100.333 68.358C100.333 70.4617 100.274 72.3855 100.274 73.7687C100.274 74.0683 100.694 75.0306 101.355 75.2111C102.197 75.6319 103.339 75.8124 104.842 76.0528H104.902C105.023 76.4737 104.783 78.0366 104.542 78.3376C104.181 78.3376 103.64 78.3376 103.039 78.2777C101.517 78.1982 99.9935 78.1581 98.4695 78.1571C94.7423 78.1571 92.8185 78.2171 90.9539 78.3376C90.8347 77.8568 90.7741 76.4137 90.9539 76.0528C92.0367 75.873 92.5774 75.6919 93.2393 75.5121C94.442 75.1511 94.7423 74.6097 94.8029 73.0468C94.8029 71.9047 95.0427 62.1649 94.6817 59.8202C94.3215 57.4155 92.5175 54.59 88.5492 54.59C87.0462 54.59 84.7022 55.1913 82.4174 56.934C82.2975 57.0546 82.1763 57.3549 82.1763 57.5354V57.596C82.4174 58.8579 82.4174 60.3016 82.4174 62.5258V66.4335C82.4174 69.1391 82.3568 71.6643 82.4174 73.5875C82.4174 74.9107 83.1992 75.2111 83.8604 75.4521C84.2214 75.5114 84.4611 75.572 84.7621 75.6319C85.3028 75.7525 85.8442 75.873 86.686 76.0528C86.8065 76.2939 86.8065 77.075 86.626 77.7363C86.5654 78.0972 86.4449 78.277 86.385 78.3376C84.3412 78.2777 82.2369 78.2171 79.171 78.2171C78.2693 78.2171 76.7057 78.2777 75.3832 78.2777C74.3004 78.2777 73.2789 78.3376 72.6782 78.3376C72.6176 78.2171 72.4971 77.7968 72.4971 77.1349C72.4971 76.5942 72.6176 76.1733 72.7381 76.0528C73.0385 75.9929 73.2789 75.9329 73.5798 75.9329C74.3004 75.8124 74.9024 75.6919 75.5031 75.572C76.5259 75.2717 76.8862 74.7303 76.9461 73.4077C77.1266 70.4017 77.307 61.8046 76.8862 59.6397C76.165 56.1529 74.1812 54.4095 70.9941 54.4095C69.1308 54.4095 66.7854 55.3112 64.8622 56.7549C64.5612 56.9946 64.3208 57.5953 64.3208 58.1367V61.6841C64.3208 66.0126 64.3208 71.4239 64.3807 73.7687C64.4413 74.4892 64.6811 75.3316 66.0642 75.6319C66.3652 75.6919 66.846 75.8124 67.4473 75.873L68.5288 76.0528C68.65 76.4137 68.5894 77.8568 68.349 78.3376C67.7477 78.3376 67.0265 78.2777 66.1841 78.2777C64.9221 78.2171 63.2986 78.1571 61.4953 78.1571C59.391 78.1571 57.888 78.2171 56.6853 78.2777C55.8436 78.1571 55.1823 78.1571 54.4611 78.1571Z" fill="white"/>
<path fill-rule="evenodd" clip-rule="evenodd" d="M22.8369 92.5865L20.3723 91.7441C20.3723 91.7441 20.6733 79.1794 16.1636 78.2777C13.1583 74.7903 16.6457 -69.62 27.467 77.7962C27.467 77.7962 23.7392 79.6595 23.0779 82.8466C22.3561 85.9732 22.8369 92.5865 22.8369 92.5865Z" fill="white"/>
<path fill-rule="evenodd" clip-rule="evenodd" d="M22.8369 92.5865L20.3723 91.7441C20.3723 91.7441 20.6733 79.1794 16.1636 78.2777C13.1583 74.7903 16.6457 -69.62 27.467 77.7962C27.467 77.7962 23.7392 79.6595 23.0779 82.8466C22.3561 85.9732 22.8369 92.5865 22.8369 92.5865Z" fill="white"/>
<path fill-rule="evenodd" clip-rule="evenodd" d="M24.1601 80.442C24.1601 80.442 45.7441 66.2531 40.6931 36.7332C35.8238 15.2711 24.3406 8.23688 23.078 5.53122C21.6955 3.60736 20.3723 0.241089 20.3723 0.241089L21.2746 59.9401C21.2746 60.0007 19.4107 78.2171 24.1608 80.4426" fill="white"/>
<path fill-rule="evenodd" clip-rule="evenodd" d="M24.1601 80.442C24.1601 80.442 45.7441 66.2531 40.6931 36.7332C35.8238 15.2711 24.3406 8.23688 23.078 5.53122C21.6955 3.60736 20.3723 0.241089 20.3723 0.241089L21.2746 59.9401C21.2746 60.0007 19.4107 78.2171 24.1608 80.4426" fill="white"/>
<path fill-rule="evenodd" clip-rule="evenodd" d="M19.1103 81.2231C19.1103 81.2231 -1.15116 67.3951 0.0514968 43.0468C1.19357 18.6979 15.5023 6.73384 18.2679 4.56958C20.0719 2.64572 20.1319 1.92386 20.2524 0C21.515 2.70566 21.2746 40.4617 21.4544 44.9101C21.9951 62.0444 20.4928 77.9773 19.1103 81.2231Z" fill="white"/>
<path fill-rule="evenodd" clip-rule="evenodd" d="M19.1103 81.2231C19.1103 81.2231 -1.15116 67.3951 0.0514968 43.0468C1.19357 18.6979 15.5023 6.73384 18.2679 4.56958C20.0719 2.64572 20.1319 1.92386 20.2524 0C21.515 2.70566 21.2746 40.4617 21.4544 44.9101C21.9951 62.0444 20.4928 77.9773 19.1103 81.2231Z" fill="white"/>
</svg>
