<svg width="159" height="95" viewBox="0 0 159 95" fill="none" xmlns="http://www.w3.org/2000/svg">
<path d="M37.9424 24.7594H67.6212V27.1183H40.6629V44.8722H66.0136V47.2311H40.6629V66.7232H67.9303V69.0821H37.9424V24.7594ZM70.2799 24.7594H73.4332L87.407 44.2514L101.69 24.7594L121.117 0L89.2001 46.3L105.647 69.0821H102.37L87.407 48.3485L72.3821 69.0821H69.1669L85.7376 46.3L70.2799 24.7594ZM106.822 27.1183V24.7594H140.643V27.1183H125.062V69.0821H122.341V27.1183H106.822ZM0.812988 24.7594H4.21368L51.1073 94.9312L31.7284 69.0821L3.6572 28.1115L3.53354 69.0821H0.812988V24.7594ZM140.369 66.0113C139.813 66.0113 139.397 65.5806 139.397 65.0241C139.397 64.4675 139.813 64.0369 140.369 64.0369C140.932 64.0369 141.342 64.4675 141.342 65.0241C141.342 65.5806 140.932 66.0113 140.369 66.0113ZM143.042 63.414H144.498C144.518 64.2025 145.094 64.7325 145.941 64.7325C146.887 64.7325 147.423 64.1627 147.423 63.096V56.3379H148.905V63.1026C148.905 65.0241 147.794 66.1306 145.954 66.1306C144.227 66.1306 143.042 65.0572 143.042 63.414ZM150.844 63.3279H152.313C152.439 64.2356 153.325 64.8121 154.602 64.8121C155.793 64.8121 156.667 64.1959 156.667 63.3478C156.667 62.619 156.111 62.1817 154.847 61.8835L153.616 61.5854C151.889 61.1812 151.102 60.3464 151.102 58.9417C151.102 57.239 152.492 56.106 154.576 56.106C156.515 56.106 157.931 57.239 158.017 58.849H156.574C156.435 57.9678 155.668 57.4178 154.556 57.4178C153.385 57.4178 152.604 57.981 152.604 58.8424C152.604 59.5248 153.107 59.9157 154.351 60.2072L155.403 60.4656C157.362 60.9228 158.169 61.7179 158.169 63.1556C158.169 64.9843 156.753 66.1306 154.49 66.1306C152.372 66.1306 150.95 65.0373 150.844 63.3279Z" fill="white"/>
</svg>
