<svg width="57" height="58" viewBox="0 0 57 58" fill="none" xmlns="http://www.w3.org/2000/svg">
<g clip-path="url(#clip0_47_280)">
<path d="M52.4582 23.87C53.09 21.9673 53.3086 19.9517 53.0992 17.9579C52.8898 15.964 52.2573 14.0378 51.2441 12.3079C49.7419 9.69315 47.4481 7.62299 44.6936 6.39587C41.939 5.16875 38.8659 4.84808 35.9173 5.4801C34.2421 3.61672 32.1062 2.22693 29.7239 1.45031C27.3416 0.673679 24.797 0.537562 22.3454 1.05563C19.8939 1.57369 17.6219 2.72769 15.7575 4.40174C13.8931 6.07578 12.5021 8.21092 11.724 10.5927C9.75963 10.9955 7.90386 11.813 6.28072 12.9904C4.65757 14.1679 3.30444 15.6782 2.31175 17.4205C0.793231 20.0309 0.144226 23.0566 0.458564 26.0602C0.772902 29.0637 2.03429 31.8895 4.06037 34.1289C3.42625 36.0306 3.20554 38.0459 3.41302 40.0398C3.62051 42.0337 4.25139 43.9603 5.26348 45.6907C6.76758 48.3064 9.06332 50.3771 11.8198 51.6042C14.5764 52.8313 17.6513 53.1516 20.6016 52.5188C21.9324 54.0175 23.5677 55.215 25.3982 56.0314C27.2288 56.8478 29.2124 57.2643 31.2167 57.253C34.2389 57.2558 37.1838 56.2982 39.6264 54.5183C42.0689 52.7385 43.8827 50.2286 44.8059 47.3508C46.7701 46.9473 48.6256 46.1296 50.2486 44.9521C51.8717 43.7747 53.2249 42.2647 54.2182 40.5228C55.7187 37.9162 56.3566 34.9019 56.0405 31.9109C55.7244 28.9199 54.4705 26.1053 52.4582 23.87ZM31.2167 53.5547C28.7415 53.5586 26.344 52.6911 24.4444 51.1042L24.7785 50.9149L36.0287 44.421C36.3087 44.2568 36.5411 44.0225 36.7032 43.7413C36.8653 43.4601 36.9515 43.1415 36.9532 42.8169V26.9555L41.7092 29.7068C41.7327 29.7187 41.753 29.736 41.7686 29.7573C41.7841 29.7786 41.7944 29.8032 41.7986 29.8293V42.973C41.7927 45.7777 40.6758 48.4657 38.6926 50.4489C36.7094 52.4321 34.0213 53.5488 31.2167 53.5547ZM8.47137 43.8418C7.23006 41.6984 6.78437 39.1859 7.2127 36.7463L7.54703 36.9469L18.8082 43.4408C19.0868 43.6043 19.4041 43.6906 19.7271 43.6906C20.0502 43.6906 20.3674 43.6043 20.6461 43.4408L34.4025 35.51V41.0014C34.4012 41.0299 34.3935 41.0577 34.3799 41.0828C34.3664 41.1078 34.3474 41.1295 34.3243 41.1462L22.9294 47.7181C20.4976 49.119 17.6092 49.4977 14.8985 48.7709C12.1878 48.0441 9.87621 46.2713 8.47137 43.8418ZM5.50858 19.3366C6.7585 17.1794 8.73138 15.534 11.0779 14.6918V28.0583C11.0737 28.3812 11.1562 28.6993 11.3169 28.9795C11.4775 29.2596 11.7104 29.4916 11.9912 29.651L25.6808 37.5484L20.9246 40.2996C20.8989 40.3132 20.8702 40.3204 20.841 40.3204C20.8119 40.3204 20.7832 40.3132 20.7574 40.2996L9.38489 33.739C6.95763 32.332 5.18684 30.0205 4.46031 27.3107C3.73378 24.6008 4.11071 21.7135 5.50858 19.281V19.3366ZM44.5832 28.4147L30.8492 20.4394L35.5943 17.6988C35.62 17.6852 35.6487 17.678 35.6778 17.678C35.707 17.678 35.7357 17.6852 35.7614 17.6988L47.134 24.2707C48.8728 25.274 50.2904 26.7513 51.2211 28.5301C52.1519 30.3089 52.5575 32.3157 52.3905 34.3163C52.2235 36.3169 51.4908 38.2287 50.278 39.8286C49.0652 41.4284 47.4223 42.6502 45.5412 43.3514V29.9849C45.5313 29.6625 45.4378 29.3482 45.2698 29.0729C45.1018 28.7976 44.8654 28.5709 44.5832 28.4147ZM49.3172 21.2971L48.9829 21.0965L37.7441 14.547C37.4637 14.3824 37.1446 14.2957 36.8195 14.2957C36.4944 14.2957 36.1753 14.3824 35.8949 14.547L22.1501 22.4776V16.9864C22.1471 16.9585 22.1518 16.9303 22.1636 16.9048C22.1753 16.8793 22.1938 16.8575 22.2169 16.8416L33.5895 10.2808C35.3325 9.27664 37.3254 8.78956 39.335 8.87648C41.3447 8.96341 43.2881 9.62074 44.9379 10.7716C46.5876 11.9225 47.8756 13.5193 48.6512 15.3753C49.4268 17.2313 49.6579 19.2698 49.3175 21.2523L49.3172 21.2971ZM19.5543 31.0319L14.7984 28.2918C14.7746 28.2775 14.7543 28.2581 14.7388 28.235C14.7233 28.212 14.7131 28.1858 14.7089 28.1583V15.0482C14.7115 13.037 15.2867 11.0681 16.367 9.37171C17.4474 7.67532 18.9884 6.32154 20.8098 5.46865C22.6312 4.61577 24.6578 4.29903 26.6526 4.55547C28.6474 4.81191 30.5279 5.63093 32.0744 6.91677L31.7401 7.1063L20.4902 13.5998C20.2102 13.764 19.9777 13.9982 19.8156 14.2795C19.6535 14.5607 19.5674 14.8792 19.5656 15.2038L19.5543 31.0319ZM22.1385 25.4627L28.2647 21.9316L34.4025 25.4627V32.5246L28.2871 36.0555L22.1498 32.5246L22.1385 25.4627Z" fill="white"/>
</g>
<defs>
<clipPath id="clip0_47_280">
<rect width="56.506" height="56.506" fill="white" transform="translate(-0.00292969 0.74707)"/>
</clipPath>
</defs>
</svg>
