<svg width="228" height="95" viewBox="0 0 228 95" fill="none" xmlns="http://www.w3.org/2000/svg">
<g clip-path="url(#clip0_59_512)">
<path d="M19.8516 24.3217C19.6018 23.9132 19.2518 23.5754 18.8349 23.3401C18.4179 23.1048 17.9477 22.9799 17.469 22.9773H2.994C2.24469 22.9773 1.52606 23.275 0.996215 23.8048C0.466368 24.3347 0.168703 25.0533 0.168703 25.8026C0.168044 26.335 0.316482 26.857 0.597207 27.3094L27.9085 70.6307C28.1649 71.0338 28.5189 71.3656 28.9376 71.5955C29.3564 71.8254 29.8264 71.9459 30.3041 71.9459C30.7818 71.9459 31.2518 71.8254 31.6705 71.5955C32.0893 71.3656 32.4432 71.0338 32.6997 70.6307L39.9395 59.1553C40.2182 58.702 40.3665 58.1806 40.368 57.6485C40.3696 57.1144 40.2211 56.5907 39.9395 56.1369L19.8516 24.3217ZM44.2175 44.758C44.4739 45.1611 44.8279 45.4929 45.2467 45.7228C45.6654 45.9527 46.1354 46.0732 46.6131 46.0732C47.0908 46.0732 47.5608 45.9527 47.9796 45.7228C48.3983 45.4929 48.7523 45.1611 49.0087 44.758L51.495 40.8167L56.2439 33.2826C56.5254 32.8304 56.6747 32.3084 56.6747 31.7758C56.6724 31.2434 56.5234 30.722 56.2439 30.2689L52.4768 24.3217C52.2242 23.9137 51.8722 23.5764 51.4539 23.3413C51.0356 23.1062 50.5645 22.981 50.0847 22.9773H35.6098C35.2385 22.977 34.8709 23.0498 34.5278 23.1917C34.1848 23.3335 33.873 23.5416 33.6104 23.804C33.3478 24.0664 33.1395 24.3779 32.9974 24.7209C32.8553 25.0638 32.7821 25.4314 32.7821 25.8026C32.7765 26.3377 32.9306 26.8623 33.2247 27.3094L44.2175 44.758Z" fill="white"/>
</g>
<path d="M116.353 30.8006L104.086 63.4656H97.882L85.568 30.8006H91.302L100.984 57.9666L110.713 30.8006H116.353ZM126.145 30.8006V51.6216C126.145 54.0969 126.787 55.9612 128.072 57.2146C129.388 58.4679 131.205 59.0946 133.524 59.0946C135.874 59.0946 137.691 58.4679 138.976 57.2146C140.292 55.9612 140.95 54.0969 140.95 51.6216V30.8006H146.308V51.5276C146.308 54.1909 145.728 56.4469 144.569 58.2956C143.41 60.1442 141.859 61.5229 139.916 62.4316C137.973 63.3402 135.827 63.7946 133.477 63.7946C131.127 63.7946 128.981 63.3402 127.038 62.4316C125.127 61.5229 123.607 60.1442 122.479 58.2956C121.351 56.4469 120.787 54.1909 120.787 51.5276V30.8006H126.145ZM158.642 59.1416H169.687V63.4656H153.284V30.8006H158.642V59.1416ZM195.271 30.8006V35.1716H186.576V63.4656H181.218V35.1716H172.476V30.8006H195.271ZM217.664 63.4656L210.144 50.3996H206.055V63.4656H200.697V30.8006H211.977C214.484 30.8006 216.599 31.2392 218.322 32.1166C220.077 32.9939 221.377 34.1689 222.223 35.6416C223.1 37.1142 223.539 38.7592 223.539 40.5766C223.539 42.7072 222.912 44.6499 221.659 46.4046C220.437 48.1279 218.541 49.3029 215.972 49.9296L224.056 63.4656H217.664ZM206.055 46.1226H211.977C213.982 46.1226 215.486 45.6212 216.489 44.6186C217.523 43.6159 218.04 42.2686 218.04 40.5766C218.04 38.8846 217.539 37.5686 216.536 36.6286C215.533 35.6572 214.014 35.1716 211.977 35.1716H206.055V46.1226Z" fill="white"/>
<defs>
<clipPath id="clip0_59_512">
<rect width="56.506" height="56.506" fill="white" transform="translate(0.168945 19.2125)"/>
</clipPath>
</defs>
</svg>
